<svg width="82" height="70" viewBox="0 0 82 70" fill="none" xmlns="http://www.w3.org/2000/svg">
<path fill-rule="evenodd" clip-rule="evenodd" d="M81.8379 17.7789C81.8379 16.8663 81.0981 16.1265 80.1855 16.1265H1.69646C0.783866 16.1265 0.0440603 16.8663 0.0440603 17.7789V67.764C0.0440603 68.6766 0.783866 69.4164 1.69646 69.4164H51.2685V66.1116H3.34886V19.4313H78.5331V66.1116H68.6187V69.4164H80.1855C81.0981 69.4164 81.8379 68.6766 81.8379 67.764V17.7789Z" fill="#FFA500"/>
<path fill-rule="evenodd" clip-rule="evenodd" d="M26.0156 2.48226C26.0091 1.57435 25.2712 0.841797 24.3633 0.841797H1.69646C0.783866 0.841797 0.0440603 1.5816 0.0440603 2.4942V17.7789H3.34886V4.1466H22.7228L22.7646 9.94193C22.7712 10.8498 23.509 11.5824 24.417 11.5824H78.5331V17.7789H81.8379V9.93C81.8379 9.0174 81.0981 8.2776 80.1855 8.2776H26.0575L26.0156 2.48226Z" fill="#FFA500"/>
<path fill-rule="evenodd" clip-rule="evenodd" d="M22.5332 31.4981C22.5332 30.5855 23.273 29.8457 24.1856 29.8457H38.1732C39.0858 29.8457 39.8256 30.5855 39.8256 31.4981V45.4857C39.8256 46.3983 39.0858 47.1381 38.1732 47.1381H24.1856C23.273 47.1381 22.5332 46.3983 22.5332 45.4857V31.4981ZM25.838 33.1505V43.8333H36.5208V33.1505H25.838Z" fill="#FFA500"/>
<path fill-rule="evenodd" clip-rule="evenodd" d="M42.6514 25.6856C42.6514 24.773 43.3912 24.0332 44.3038 24.0332H58.2913C59.2039 24.0332 59.9437 24.773 59.9437 25.6856V39.6732C59.9437 40.5858 59.2039 41.3256 58.2913 41.3256H44.3038C43.3912 41.3256 42.6514 40.5858 42.6514 39.6732V25.6856ZM45.9562 27.338V38.0208H56.6389V27.338H45.9562Z" fill="#FFA500"/>
<path fill-rule="evenodd" clip-rule="evenodd" d="M22.5332 45.5142C22.5332 44.6016 23.273 43.8618 24.1856 43.8618H38.1732C39.0858 43.8618 39.8256 44.6016 39.8256 45.5142V59.5018C39.8256 60.4144 39.0858 61.1542 38.1732 61.1542H24.1856C23.273 61.1542 22.5332 60.4144 22.5332 59.5018V45.5142ZM25.838 47.1666V57.8494H36.5208V47.1666H25.838Z" fill="#FFA500"/>
<path fill-rule="evenodd" clip-rule="evenodd" d="M36.5493 45.5142C36.5493 44.6016 37.2891 43.8618 38.2017 43.8618H52.1893C53.1019 43.8618 53.8417 44.6016 53.8417 45.5142V59.5018C53.8417 60.4144 53.1019 61.1542 52.1893 61.1542H38.2017C37.2891 61.1542 36.5493 60.4144 36.5493 59.5018V45.5142ZM39.8541 47.1666V57.8494H50.5369V47.1666H39.8541Z" fill="#FFA500"/>
</svg>
