<svg width="106" height="107" viewBox="0 0 106 107" fill="none" xmlns="http://www.w3.org/2000/svg">
<path d="M69.8036 78.3726C65.4589 78.3036 61.3153 76.5127 58.267 73.3866C55.2188 70.2605 53.5103 66.0497 53.5103 61.6631C53.5103 57.2765 55.2188 53.0657 58.267 49.9396C61.3153 46.8135 65.4589 45.0227 69.8036 44.9536C70.2387 44.9536 70.656 45.1281 70.9637 45.4387C71.2714 45.7493 71.4442 46.1706 71.4442 46.6099V60.0048H84.7169C85.152 60.0048 85.5693 60.1793 85.877 60.4899C86.1847 60.8005 86.3575 61.2218 86.3575 61.661C86.3532 66.0919 84.6077 70.34 81.5042 73.473C78.4007 76.6061 74.1926 78.3682 69.8036 78.3726V78.3726ZM68.163 48.3655C65.6968 48.6754 63.3663 49.6782 61.4369 51.2596C59.5075 52.8409 58.0567 54.9374 57.2496 57.3103C56.4424 59.6832 56.3114 62.2372 56.8715 64.6815C57.4316 67.1259 58.6602 69.3624 60.4176 71.1365C62.1749 72.9105 64.3903 74.1509 66.8116 74.7163C69.2329 75.2817 71.7628 75.1495 74.1133 74.3346C76.4638 73.5198 78.5405 72.0552 80.107 70.1074C81.6734 68.1596 82.6667 65.807 82.9737 63.3173H69.8036C69.3685 63.3173 68.9512 63.1428 68.6435 62.8322C68.3358 62.5216 68.163 62.1003 68.163 61.661V48.3655Z" fill="#FFA500"/>
<path d="M89.9013 56.4769H76.7271C76.2919 56.4769 75.8746 56.3024 75.567 55.9918C75.2593 55.6812 75.0864 55.2599 75.0864 54.8207V41.521C75.0864 41.0817 75.2593 40.6605 75.567 40.3498C75.8746 40.0392 76.2919 39.8647 76.7271 39.8647C80.6549 39.8691 84.4205 41.4462 87.1979 44.2501C89.9753 47.0539 91.5376 50.8555 91.5419 54.8207C91.5419 55.2599 91.369 55.6812 91.0614 55.9918C90.7537 56.3024 90.3364 56.4769 89.9013 56.4769ZM78.3677 53.1644H88.1458C87.7872 50.6751 86.6416 48.3692 84.8796 46.5905C83.1176 44.8117 80.8336 43.6552 78.3677 43.2932V53.1644Z" fill="#FFA500"/>
<path d="M39.8623 54.771H36.5811V75.4741H39.8623V54.771Z" fill="#FFA500"/>
<path d="M33.2998 42.7632H30.0186V75.4741H33.2998V42.7632Z" fill="#FFA500"/>
<path d="M46.4248 60.9819H43.1436V75.4741H46.4248V60.9819Z" fill="#FFA500"/>
<path d="M98.9248 31.1694H89.9014V26.6147C89.9014 26.1754 89.7285 25.7541 89.4208 25.4435C89.1132 25.1329 88.6959 24.9584 88.2607 24.9584H82.9287V20.4037C82.9287 19.9645 82.7559 19.5432 82.4482 19.2326C82.1405 18.922 81.7232 18.7475 81.2881 18.7475L7.92344 18.615C7.48832 18.615 7.07102 18.7895 6.76334 19.1001C6.45566 19.4107 6.28281 19.832 6.28281 20.2712L6.22949 73.8178C6.22949 74.2571 6.40234 74.6783 6.71002 74.9889C7.0177 75.2996 7.435 75.474 7.87012 75.474H13.2021V79.6147C13.2021 80.0539 13.375 80.4752 13.6827 80.7858C13.9904 81.0964 14.4077 81.2709 14.8428 81.2709H20.1748V85.8256C20.1748 86.2649 20.3477 86.6861 20.6553 86.9968C20.963 87.3074 21.3803 87.4819 21.8154 87.4819H32.8322V84.1694H23.4561V34.4819H97.2842V84.1694H50.5264V87.4819H98.9248C99.3599 87.4819 99.7772 87.3074 100.085 86.9968C100.393 86.6861 100.565 86.2649 100.565 85.8256V32.8256C100.565 32.3863 100.393 31.9651 100.085 31.6545C99.7772 31.3439 99.3599 31.1694 98.9248 31.1694ZM14.8961 24.8259C14.461 24.8259 14.0437 25.0004 13.736 25.311C13.4283 25.6216 13.2555 26.0429 13.2555 26.4822L13.2021 72.1615H9.51074L9.55996 21.9316L79.6475 22.06V24.9584L14.8961 24.8259ZM21.8154 31.1694C21.3803 31.1694 20.963 31.3439 20.6553 31.6545C20.3477 31.9651 20.1748 32.3863 20.1748 32.8256V77.9584H16.4834L16.5326 28.1426L86.6201 28.2709V31.1694H21.8154Z" fill="#FFA500"/>
</svg>
