<svg xmlns="http://www.w3.org/2000/svg" xmlns:xlink="http://www.w3.org/1999/xlink" viewBox="0 0 770 420"><defs><style>.cls-1,.cls-2,.cls-4,.cls-9{fill:none;}.cls-1{clip-rule:evenodd;}.cls-3{fill:gray;}.cls-4{stroke:gray;stroke-width:1.71px;}.cls-4,.cls-9{stroke-miterlimit:10;}.cls-5{fill:#fff;}.cls-6{fill:#faa41a;}.cls-7{clip-path:url(#clip-path);}.cls-8{clip-path:url(#clip-path-2);}.cls-9{stroke:#fff;stroke-width:2px;}.cls-10{clip-path:url(#clip-path-3);}.cls-11{clip-path:url(#clip-path-4);}.cls-12{fill:#878483;}</style><clipPath id="clip-path"><polygon class="cls-1" points="333.04 192.63 373.14 192.63 373.14 171.09 333.04 171.09 333.04 192.63 333.04 192.63"/></clipPath><clipPath id="clip-path-2"><polygon class="cls-2" points="333.04 192.63 373.14 192.63 373.14 171.09 333.04 171.09 333.04 192.63 333.04 192.63"/></clipPath><clipPath id="clip-path-3"><polygon class="cls-1" points="484.01 237.93 523.75 237.93 523.75 216.59 484.01 216.59 484.01 237.93 484.01 237.93"/></clipPath><clipPath id="clip-path-4"><polygon class="cls-2" points="484.01 237.93 523.75 237.93 523.75 216.59 484.01 216.59 484.01 237.93 484.01 237.93"/></clipPath></defs><g id="Gebäude"><polygon class="cls-3" points="192.06 298.49 74.81 298.49 74.81 133.26 160.51 133.26 160.51 135.26 76.81 135.26 76.81 296.49 192.06 296.49 192.06 298.49"/><line class="cls-4" x1="539.04" y1="134.26" x2="320.17" y2="134.26"/><rect class="cls-3" x="576.17" y="198.63" width="2" height="78.67"/><path class="cls-3" d="M283.92,301.24H270.28V231.87H204.7v69.37H191.06V218.32h92.86Zm-90.86-2h9.64V229.87h69.58v69.36h9.64V220.32H193.06Z"/><rect class="cls-3" x="526.06" y="243.8" width="2" height="33.5"/><polygon class="cls-3" points="437.21 277.63 435.21 277.63 435.21 218.32 479.42 218.32 479.42 220.32 437.21 220.32 437.21 277.63"/><polygon class="cls-3" points="326.77 301.24 313.14 301.24 313.14 218.31 405.99 218.31 405.99 277.3 403.99 277.3 403.99 220.31 315.14 220.31 315.14 299.24 324.77 299.24 324.77 229.87 394.36 229.87 394.36 277.29 392.36 277.29 392.36 231.87 326.77 231.87 326.77 301.24"/><rect class="cls-3" x="514.43" y="243.8" width="2" height="33.49"/><polygon class="cls-3" points="448.85 277.62 446.85 277.62 446.85 229.87 479.42 229.87 479.42 231.87 448.85 231.87 448.85 277.62"/><rect class="cls-3" x="282.17" y="296.52" width="32.19" height="2"/></g><g id="Dashboards"><path class="cls-5" d="M278.1,166H162.4a3.07,3.07,0,0,1-3.07-3.07V69.69a3.08,3.08,0,0,1,3.07-3.07h11.67v2H162.4a1.07,1.07,0,0,0-1.07,1.07V163A1.07,1.07,0,0,0,162.4,164H278.1Z"/><path class="cls-5" d="M318.1,166H304.72v-2H318.1a1.07,1.07,0,0,0,1.07-1.07V69.69a1.07,1.07,0,0,0-1.07-1.07H230.59v-2H318.1a3.08,3.08,0,0,1,3.07,3.07V163A3.07,3.07,0,0,1,318.1,166Z"/><path class="cls-5" d="M312.75,154.48h-145a2,2,0,0,1-2-2V74.3a2,2,0,0,1,2-2h145a2,2,0,0,1,2,2v78.15A2,2,0,0,1,312.75,154.48Zm-145-80.91a.73.73,0,0,0-.73.73v78.15a.73.73,0,0,0,.73.73h145a.73.73,0,0,0,.73-.73V74.3a.73.73,0,0,0-.73-.73Z"/><circle class="cls-6" cx="310.68" cy="159.48" r="1.36"/><circle class="cls-5" cx="306.35" cy="159.48" r="0.96"/><path class="cls-5" d="M328.57,184.86H314.19a3.75,3.75,0,0,1-3.74-3.74V165.37H312v15.75a2.25,2.25,0,0,0,2.24,2.24h14.38Z"/><polygon class="cls-6" points="384.21 158.37 384.21 192.29 378.41 192.29 378.41 164.86 334.62 164.86 334.62 158.37 384.21 158.37"/><g class="cls-7"><g class="cls-8"><path class="cls-5" d="M360.35,182.36V171.09h2.48V177l2.33-3.06h2.94L365,177.62l3,4.74H365.2l-2.34-4.07,0,4.07Zm-24.9,5.73a2,2,0,0,0,2,2.18,2.16,2.16,0,0,0,0-4.31,2.06,2.06,0,0,0-2.06,2.13Zm8.76,0a2,2,0,1,0,2-2.13,2,2,0,0,0-2,2.13Zm8.65,0a2.09,2.09,0,0,0,2.06,2.13,2.16,2.16,0,1,0-2.06-2.13Zm-15.35-7.85a2.16,2.16,0,1,0-2.07-2.15,2.09,2.09,0,0,0,2.07,2.15Zm6.7-3.09H348a1.94,1.94,0,0,0-3.76,0Zm15.27-3.29v8.45H357v-.92a2.76,2.76,0,0,1-2.45,1.21,4.08,4.08,0,0,1-4.11-3.75h-6.26a1.86,1.86,0,0,0,1.94,1.6,1.76,1.76,0,0,0,1.51-.79h2.54a5,5,0,0,1-1.69,2.16,4,4,0,0,1-2.36.76,4.41,4.41,0,0,1-4.2-3.19,4,4,0,0,1-3.89,3.21,3.14,3.14,0,0,1-2.49-1.05v3a3.17,3.17,0,0,1,2.4-1,4,4,0,0,1,4,3.28,4.46,4.46,0,0,1,8.61.06,4.12,4.12,0,0,1,4-3.34,2.68,2.68,0,0,1,2.42,1.19l0-.9h2.48v8.45H357v-.91a2.75,2.75,0,0,1-2.45,1.2,4,4,0,0,1-4-3.35,4.46,4.46,0,0,1-8.62,0,4.06,4.06,0,0,1-4.05,3.32,2.66,2.66,0,0,1-2.37-1.19l0,.9h-2.38V173.91h2.33v.93a3.29,3.29,0,0,1,2.63-1.22,3.92,3.92,0,0,1,3.89,3.28,4.32,4.32,0,0,1,8.5.69,4.18,4.18,0,0,1,4.14-4,2.68,2.68,0,0,1,2.42,1.19l0-.9Zm-6.62,4.25a2.07,2.07,0,1,0,4.14,0,2.07,2.07,0,1,0-4.14,0Zm20.27,2.92v11.26h-2.36v-.91a2.71,2.71,0,0,1-2.51,1.18c-2.51,0-4.15-2-4.15-4.52a5.27,5.27,0,0,1,.35-1.93c-1,.07-1.63.38-1.63,1.54v4.64h-2.48v-8.45h2.33v.9a2.13,2.13,0,0,1,2.11-1.19v1.92a4,4,0,0,1,3.42-1.92,3.17,3.17,0,0,1,2.44,1v-3.53Zm-6.54,7a2,2,0,0,0,2.07,2.17,2.08,2.08,0,0,0,2.12-2.17,2.1,2.1,0,1,0-4.19,0Z"/></g></g><path class="cls-5" d="M656,200H541.34a3.06,3.06,0,0,1-3.05-3.06V104.49a3.06,3.06,0,0,1,3.05-3H552.9v2H541.34a1,1,0,0,0-1.05,1v92.42a1.06,1.06,0,0,0,1.05,1.06H656Z"/><path class="cls-9" d="M608.9,102.44h86.72a2.05,2.05,0,0,1,2.06,2v92.43a2.05,2.05,0,0,1-2.06,2.05H682.36"/><path class="cls-5" d="M690.32,188.51H546.64a2,2,0,0,1-2-2V109.06a2,2,0,0,1,2-2H690.32a2,2,0,0,1,2,2v77.43A2,2,0,0,1,690.32,188.51ZM546.64,108.34a.71.71,0,0,0-.71.72v77.43a.71.71,0,0,0,.71.72H690.32a.72.72,0,0,0,.72-.72V109.06a.72.72,0,0,0-.72-.72Z"/><circle class="cls-6" cx="688.27" cy="193.46" r="1.34"/><circle class="cls-5" cx="683.98" cy="193.46" r="0.95"/><path class="cls-5" d="M543.15,218.64H528.62v-1.5h14.53a2.22,2.22,0,0,0,2.22-2.21v-15.6h1.5v15.6A3.72,3.72,0,0,1,543.15,218.64Z"/><polygon class="cls-6" points="522.38 203.79 522.38 209.48 479 209.48 479 237.41 473.24 237.41 473.24 203.79 522.38 203.79"/><g class="cls-10"><g class="cls-11"><path class="cls-5" d="M511.07,227.75V216.59h2.45v5.82l2.31-3h2.92l-3.1,3.68,3,4.69h-2.78l-2.33-4,0,4Zm-24.68,5.69a2,2,0,0,0,2,2.15,2.13,2.13,0,0,0,.05-4.26,2,2,0,0,0-2.05,2.11Zm8.68,0a2,2,0,1,0,2-2.11,2,2,0,0,0-2,2.11Zm8.58,0a2.05,2.05,0,1,0,4.1,0,2.05,2.05,0,1,0-4.1,0Zm-15.21-7.78a2.14,2.14,0,1,0-2.06-2.13,2.07,2.07,0,0,0,2.06,2.13Zm6.63-3.06h3.73a1.81,1.81,0,0,0-1.86-1.43,1.83,1.83,0,0,0-1.87,1.43Zm15.13-3.26v8.37h-2.45v-.9a2.74,2.74,0,0,1-2.43,1.19,4,4,0,0,1-4.07-3.71h-6.2a1.84,1.84,0,0,0,1.92,1.58,1.73,1.73,0,0,0,1.49-.78H501a4.94,4.94,0,0,1-1.67,2.14A3.93,3.93,0,0,1,497,228a4.39,4.39,0,0,1-4.17-3.15A4,4,0,0,1,489,228a3.11,3.11,0,0,1-2.47-1v2.94a3.17,3.17,0,0,1,2.39-.95,4,4,0,0,1,3.91,3.24,4.43,4.43,0,0,1,8.54.07,4.09,4.09,0,0,1,4-3.31,2.65,2.65,0,0,1,2.4,1.18l0-.89h2.45v8.37h-2.45v-.91a2.74,2.74,0,0,1-2.43,1.19,4,4,0,0,1-4-3.32,4.42,4.42,0,0,1-8.54,0,4,4,0,0,1-4,3.29,2.65,2.65,0,0,1-2.35-1.17l0,.89H484V219.38h2.31v.92a3.25,3.25,0,0,1,2.6-1.2,3.87,3.87,0,0,1,3.85,3.25,4.29,4.29,0,0,1,8.43.68,4.13,4.13,0,0,1,4.1-3.93,2.67,2.67,0,0,1,2.4,1.17l0-.89Zm-6.55,4.21a2.05,2.05,0,1,0,4.1,0,2.05,2.05,0,1,0-4.1,0Zm20.08,2.9v11.16h-2.34v-.91a2.68,2.68,0,0,1-2.49,1.18c-2.48,0-4.11-2-4.11-4.48a5.21,5.21,0,0,1,.35-1.92c-1,.07-1.62.38-1.62,1.53v4.6h-2.45v-8.37h2.31v.89a2.08,2.08,0,0,1,2.08-1.18v1.9a4,4,0,0,1,3.4-1.9,3.13,3.13,0,0,1,2.41,1v-3.49Zm-6.48,6.93a2,2,0,0,0,2,2.16,2.07,2.07,0,0,0,2.1-2.16,2.08,2.08,0,1,0-4.15,0Z"/></g></g><path class="cls-5" d="M250.1,98.05h-1.87v4.76h-1.78V98.05h-1.87V96.47h5.52Z"/><path class="cls-5" d="M253.92,102h-2.49l-.27.83h-1.81l2.25-6.34h2.14l2.33,6.34h-1.89Zm-.48-1.47L253,99.05c-.1-.33-.21-.67-.3-1l-.3,1-.47,1.46Z"/><path class="cls-5" d="M262,102.81h-1.83a1.57,1.57,0,0,1-.13-.64l0-.72c0-.72-.36-.83-.86-.83h-.93v2.19h-1.78V96.47h3.12c1.73,0,2.36.89,2.36,1.88a1.59,1.59,0,0,1-1,1.49c.74.27.85.81.88,1.49l0,.84A1.36,1.36,0,0,0,262,102.81Zm-2.71-3.49c.53,0,.8-.27.8-.73s-.27-.73-.8-.73h-1.07v1.46Z"/><path class="cls-5" d="M268.8,99.18v3.63h-1.21l-.18-.83a2.32,2.32,0,0,1-2.05,1,3,3,0,0,1-3.06-3.32,3,3,0,0,1,3.29-3.31c1.7,0,2.92.86,3.13,2.3H266.9a1.23,1.23,0,0,0-1.29-.78c-.92,0-1.45.67-1.45,1.79s.55,1.79,1.55,1.79a1.22,1.22,0,0,0,1.25-.9H265.8V99.18Z"/><path class="cls-5" d="M271.38,98.05v.84h2.95v1.48h-2.95v.86h3.23v1.58h-5V96.47h5v1.58Z"/><path class="cls-5" d="M280.45,98.05h-1.87v4.76h-1.79V98.05h-1.87V96.47h5.53Z"/><path class="cls-5" d="M292.6,101.36v1.45h-5.16l0-.64a2.66,2.66,0,0,1,2-2.72l.38-.14c.66-.23.89-.46.89-.87s-.27-.66-.75-.66-.82.28-.82.89h-1.69c0-1.35.72-2.34,2.55-2.34,1.6,0,2.48.83,2.48,1.92,0,1.26-.74,1.78-2,2.29l-.47.2c-.43.18-.64.3-.68.62Z"/><path class="cls-5" d="M296.38,102.81H294.6V99.12h-1.5V97.94h.15A1.67,1.67,0,0,0,295,96.47h1.4Z"/><path class="cls-5" d="M302.24,101.36v1.45h-5.16l0-.64a2.68,2.68,0,0,1,2.05-2.72l.39-.14c.65-.23.89-.46.89-.87s-.28-.66-.76-.66-.81.28-.81.89h-1.69c0-1.35.72-2.34,2.54-2.34,1.61,0,2.48.83,2.48,1.92,0,1.26-.74,1.78-2,2.29l-.47.2c-.43.18-.63.3-.68.62Z"/><path class="cls-5" d="M249,115.64h-2.49l-.27.83h-1.82l2.26-6.35h2.14l2.33,6.35h-1.89Zm-.49-1.47-.47-1.46c-.11-.33-.21-.67-.3-1l-.3,1-.47,1.46Z"/><path class="cls-5" d="M251,113.29A3,3,0,0,1,254.2,110a2.91,2.91,0,0,1,3.11,2.5h-1.8a1.27,1.27,0,0,0-1.31-1c-.93,0-1.4.68-1.4,1.79s.47,1.8,1.4,1.8a1.29,1.29,0,0,0,1.34-1.11h1.78a2.91,2.91,0,0,1-3.12,2.63A3.07,3.07,0,0,1,251,113.29Z"/><path class="cls-5" d="M262.85,111.71H261v4.76h-1.79v-4.76h-1.87v-1.59h5.53Z"/><path class="cls-5" d="M263.25,114v-3.91H265v3.93a1.07,1.07,0,0,0,2.14,0v-3.93H269V114c0,1.72-1.17,2.58-2.85,2.58A2.54,2.54,0,0,1,263.25,114Z"/><path class="cls-5" d="M273.48,115.64H271l-.26.83h-1.82l2.25-6.35h2.14l2.34,6.35h-1.89Zm-.48-1.47-.47-1.46c-.11-.33-.22-.67-.31-1-.1.34-.19.68-.3,1l-.46,1.46Z"/><path class="cls-5" d="M280.58,114.88v1.59H276v-6.35h1.78v4.76Z"/><path class="cls-5" d="M290.79,116.47H289v-3.69h-1.49v-1.19h.14a1.67,1.67,0,0,0,1.74-1.46h1.4Z"/><path class="cls-5" d="M296.79,114.33a2.31,2.31,0,0,1-2.57,2.28,2.8,2.8,0,0,1-1.63-.46,3,3,0,0,1-1.09-2.68c0-2.31,1-3.49,2.73-3.49a2.22,2.22,0,0,1,2.48,1.84h-1.6c-.1-.42-.39-.59-.86-.59-.67,0-1.06.35-1.14,1.65a1.89,1.89,0,0,1,1.53-.62A2,2,0,0,1,296.79,114.33Zm-1.65,0a.93.93,0,1,0-.92.89A.86.86,0,0,0,295.14,114.37Z"/><path class="cls-5" d="M302.34,115v1.46h-5.16l0-.64a2.68,2.68,0,0,1,2.05-2.73l.38-.14c.66-.23.9-.46.9-.87s-.28-.66-.76-.66-.81.29-.81.89h-1.7c0-1.34.73-2.34,2.55-2.34,1.61,0,2.48.84,2.48,1.92,0,1.26-.74,1.79-2,2.29l-.47.2c-.43.18-.63.3-.68.62Z"/><path class="cls-5" d="M251,131.12a2.92,2.92,0,0,1-3.28,3.18h-2.78V128h2.78C250,128,251,129.25,251,131.12Zm-1.85,0c0-1.23-.62-1.67-1.47-1.67h-.95v3.35h.95C248.52,132.8,249.14,132.36,249.14,131.12Z"/><path class="cls-5" d="M253.4,129.54v.84h2.94v1.48H253.4v.85h3.23v1.59h-5V128h5v1.59Z"/><path class="cls-5" d="M261.88,132.71v1.59h-4.59V128h1.79v4.76Z"/><path class="cls-5" d="M266.79,129.54h-1.88v4.76h-1.78v-4.76h-1.87V128h5.53Z"/><path class="cls-5" d="M270.6,133.47h-2.49l-.26.83H266l2.25-6.35h2.14l2.34,6.35h-1.89Zm-.48-1.47-.47-1.46c-.11-.33-.22-.67-.31-1-.09.34-.19.68-.3,1l-.46,1.46Z"/><path class="cls-5" d="M295.9,132.16a2.63,2.63,0,0,1-5.17.27h1.66a.95.95,0,1,0,.92-1.21,1,1,0,0,0-.87.48H290.8l.66-3.75h4.17v1.45h-2.82l-.22,1a2.18,2.18,0,0,1,3.31,1.75Z"/><path class="cls-5" d="M296.39,131.12c0-2.1,1-3.31,2.85-3.31s2.85,1.21,2.85,3.31-1,3.32-2.85,3.32S296.39,133.23,296.39,131.12Zm3.85,0c0-1.41-.37-1.86-1-1.86s-1,.45-1,1.86.37,1.87,1,1.87S300.24,132.54,300.24,131.12Z"/><rect class="cls-2" x="468.74" y="339.87" width="168.27" height="8.66" rx="3.02"/><rect class="cls-2" x="473.82" y="277.3" width="113.1" height="62.57"/><path class="cls-3" d="M623.05,291.89,635,311v2.41H608.75V291.89h14.3m1.11-2H606.75v25.54H637V311a2,2,0,0,0-.3-1.06l-12.56-20.07Z"/><path class="cls-12" d="M637.1,343.5h-2V311a1,1,0,0,0-.15-.53L620.69,287.7a1,1,0,0,0-.84-.47h-23.2a1,1,0,0,0-1,1v51.64h-2V288.23a3,3,0,0,1,3-3h23.2a3,3,0,0,1,2.54,1.41l14.26,22.79a3,3,0,0,1,.45,1.59Z"/><rect class="cls-3" x="503.15" y="338.88" width="55.7" height="2"/><rect class="cls-2" x="350.21" y="277.3" width="113.1" height="62.57"/><rect class="cls-3" x="378.92" y="338.88" width="54.2" height="2"/><path class="cls-3" d="M633.74,349.77h-9.8v-2h9.8a1.28,1.28,0,0,0,1.27-1.28v-5.61H621.45v-2H637v7.61A3.29,3.29,0,0,1,633.74,349.77Z"/><rect class="cls-3" x="579.22" y="338.88" width="21.86" height="2"/><rect class="cls-3" x="581.71" y="347.77" width="16.87" height="2"/><path class="cls-3" d="M480.28,349.77H471a3.29,3.29,0,0,1-3.28-3.28v-4.34a3.27,3.27,0,0,1,3.28-3.27h11.83v2H471a1.27,1.27,0,0,0-1.28,1.27v4.34a1.28,1.28,0,0,0,1.28,1.28h9.33Z"/><rect class="cls-3" x="503.15" y="338.88" width="55.7" height="2"/><rect class="cls-3" x="505.64" y="347.77" width="50.71" height="2"/><path class="cls-2" d="M453.49,339.88h13.29a2.59,2.59,0,0,1,2.59,2.58V346a2.58,2.58,0,0,1-2.59,2.58H381.43"/><path class="cls-2" d="M356,348.53h-7.71a2.57,2.57,0,0,1-2.58-2.58v-3.49a2.58,2.58,0,0,1,2.58-2.58h10.23"/><path class="cls-3" d="M356.05,349.77h-8.42a3,3,0,0,1-2.95-2.95v-5a3,3,0,0,1,2.95-2.95h10.92v2H347.63a.94.94,0,0,0-.95.95v5a1,1,0,0,0,.95.95h8.42Z"/><rect class="cls-3" x="378.92" y="338.88" width="54.2" height="2"/><rect class="cls-3" x="381.41" y="347.77" width="49.21" height="2"/><path class="cls-3" d="M466.68,349.77H456v-2h10.7a1,1,0,0,0,.95-.95v-5.94H453.49v-2h14a2.11,2.11,0,0,1,2.11,2.1v5.84A3,3,0,0,1,466.68,349.77Z"/><rect class="cls-3" x="611.89" y="320.89" width="24.21" height="2"/><rect class="cls-3" x="602.65" y="325.32" width="33.45" height="2"/><path class="cls-3" d="M461.27,277h-108a3.79,3.79,0,0,0-3.78,3.79v56.34a3.79,3.79,0,0,0,3.78,3.79h3.41a13.74,13.74,0,1,0,24.09,0h50.49a13.74,13.74,0,1,0,24.7,1.28,11.62,11.62,0,0,0-.62-1.28h5.93a3.79,3.79,0,0,0,3.79-3.79V280.78A3.79,3.79,0,0,0,461.27,277Zm-84.19,78.79A11.74,11.74,0,0,1,357,347.61a11.6,11.6,0,0,1,2.05-6.7,10.81,10.81,0,0,1,1.33-1.62l.39-.38a11.66,11.66,0,0,1,7.89-3.11h.08a11.72,11.72,0,0,1,4.45.87,11.88,11.88,0,0,1,3.51,2.25l.28.27a12.35,12.35,0,0,1,1.44,1.73,11.74,11.74,0,0,1-1.33,14.87Zm74.58,0a11.74,11.74,0,0,1-18.06-14.87,12,12,0,0,1,1.34-1.62l.39-.38a11.66,11.66,0,0,1,7.89-3.11h.08a11.77,11.77,0,0,1,4.46.87,12,12,0,0,1,3.5,2.25l.28.27a11.72,11.72,0,0,1,.12,16.6Zm11.4-18.66a1.79,1.79,0,0,1-1.79,1.79H454a14.45,14.45,0,0,0-1.05-1.16,13.76,13.76,0,0,0-19.43.13c-.33.33-.63.68-.92,1H379.42a14.45,14.45,0,0,0-1.05-1.16,13.66,13.66,0,0,0-9.64-4h-.1a13.64,13.64,0,0,0-9.69,4.08c-.32.33-.63.67-.92,1h-4.75a1.79,1.79,0,0,1-1.78-1.79V280.78a1.79,1.79,0,0,1,1.78-1.79h108a1.79,1.79,0,0,1,1.79,1.79Z"/><path class="cls-3" d="M584.59,277h-108a3.79,3.79,0,0,0-3.79,3.79v56.34a3.79,3.79,0,0,0,3.79,3.79h4.33a13.74,13.74,0,1,0,24.7,1.28,11.62,11.62,0,0,0-.62-1.28h52a13.75,13.75,0,0,0,2.39,16.41,13.75,13.75,0,0,0,21.69-16.41h3.52a3.79,3.79,0,0,0,3.79-3.79V280.78A3.79,3.79,0,0,0,584.59,277Zm-83.27,78.79a11.75,11.75,0,0,1-18.06-14.87,12.13,12.13,0,0,1,1.34-1.62l.39-.38a11.66,11.66,0,0,1,7.89-3.11H493a11.77,11.77,0,0,1,4.46.87,12,12,0,0,1,3.5,2.25l.28.27a11.77,11.77,0,0,1,1.45,1.73,11.74,11.74,0,0,1-1.33,14.87Zm76.06,0a11.74,11.74,0,0,1-18-14.87,12,12,0,0,1,1.34-1.62l.39-.38A11.66,11.66,0,0,1,569,335.8H569a11.81,11.81,0,0,1,4.46.87,12,12,0,0,1,3.5,2.25l.28.27a11.71,11.71,0,0,1,.11,16.6Zm9-18.66a1.79,1.79,0,0,1-1.79,1.79h-4.86a12.64,12.64,0,0,0-1.05-1.16,13.76,13.76,0,0,0-19.43.13c-.32.33-.63.67-.92,1H503.66a14.45,14.45,0,0,0-1.05-1.16,13.76,13.76,0,0,0-19.43.13c-.33.33-.63.68-.93,1h-5.66a1.8,1.8,0,0,1-1.79-1.79V280.78a1.79,1.79,0,0,1,1.79-1.79h108a1.79,1.79,0,0,1,1.79,1.79Z"/><path class="cls-3" d="M611.26,361.27a13.74,13.74,0,0,1-.09-27.48,13.58,13.58,0,0,1,9.74,4h0a13.74,13.74,0,0,1-9.65,23.52Zm0-25.48h-.08a11.75,11.75,0,1,0,8.32,3.39h0A11.62,11.62,0,0,0,611.26,335.79Z"/><rect class="cls-6" x="177.65" y="107.52" width="16.35" height="31.2"/><rect class="cls-5" x="177.65" y="91.09" width="16.35" height="16.44"/><rect class="cls-5" x="198.08" y="91.09" width="16.35" height="8.43"/><rect class="cls-6" x="198.08" y="99.49" width="16.35" height="39.24"/><rect class="cls-5" x="218.71" y="90.88" width="16.35" height="27.24"/><rect class="cls-5" x="648.66" y="147.3" width="16.35" height="40.7" transform="translate(489.19 824.49) rotate(-90)"/><rect class="cls-6" x="218.71" y="118.05" width="16.35" height="20.48"/><rect class="cls-6" x="588.79" y="127.87" width="16.35" height="79.55" transform="translate(429.32 764.62) rotate(-90)"/><rect class="cls-5" x="243.27" y="122.27" width="60.37" height="1.3"/><path class="cls-5" d="M566.09,124.29v4.85h-1.61l-.24-1.11a3.12,3.12,0,0,1-2.73,1.3c-2.46,0-4.08-1.71-4.08-4.42a4.08,4.08,0,0,1,4.39-4.43c2.25,0,3.89,1.16,4.17,3.08h-2.43a1.63,1.63,0,0,0-1.72-1c-1.23,0-1.94.89-1.94,2.39s.74,2.38,2.07,2.38a1.63,1.63,0,0,0,1.68-1.2h-1.56v-1.8Z"/><path class="cls-5" d="M572.54,128h-3.31l-.36,1.11h-2.42l3-8.47h2.86l3.11,8.47H572.9Zm-.64-2-.63-1.95c-.14-.44-.28-.89-.4-1.34-.13.45-.26.9-.41,1.34l-.61,1.95Z"/><path class="cls-5" d="M581.78,122.79h-2.5v6.35H576.9v-6.35h-2.49v-2.12h7.37Z"/><path class="cls-5" d="M584.86,122.79v1.12h3.93v2h-3.93V127h4.31v2.12h-6.68v-8.47h6.68v2.12Z"/><path class="cls-5" d="M600,126.64c0,1.55-1.24,2.69-3.51,2.69-2.58,0-3.74-1.28-3.75-3.31h2.27c0,1,.47,1.37,1.39,1.37.76,0,1.16-.35,1.16-.88,0-.7-.44-.94-1.23-.94h-.63v-1.63h.68c.74,0,1.13-.21,1.13-.85,0-.47-.35-.79-1.07-.79s-1.13.25-1.17,1H593c.08-1.84,1.14-2.81,3.47-2.81,2.09,0,3.29.94,3.29,2.36a2,2,0,0,1-1.24,1.78A2,2,0,0,1,600,126.64Z"/><path class="cls-5" d="M626.33,141.35h1.85c0,.81.55.94,1.29.94s1-.23,1-.62-.24-.53-1.08-.66l-.54-.09c-1.55-.25-2.38-1-2.38-2.21s.89-2.12,2.81-2.12,2.85.76,2.93,2.26h-1.81c0-.54-.34-.8-1.09-.8s-.88.22-.88.57.32.56,1,.68l.56.09c1.68.28,2.45.92,2.45,2.14,0,1.53-1.23,2.22-3,2.22C627.33,143.75,626.33,142.75,626.33,141.35Z"/><path class="cls-5" d="M635.2,140.17h2.95v1.48H635.2Z"/><path class="cls-5" d="M647.11,139.13a2.33,2.33,0,0,1-2.63,2.39h-1.29v2.08h-1.92v-6.86h3.21A2.33,2.33,0,0,1,647.11,139.13Zm-1.91,0c0-.52-.35-.77-.86-.77h-1.15v1.54h1.15C644.85,139.9,645.2,139.65,645.2,139.13Z"/><path class="cls-5" d="M653.84,141.58c0,1.21-.78,2-2.58,2h-3.48v-6.86h3.41c1.78,0,2.37.87,2.37,1.75a1.51,1.51,0,0,1-.9,1.43A1.78,1.78,0,0,1,653.84,141.58Zm-4.13-3.33v1.17h1.35a.59.59,0,0,0,0-1.17Zm2.14,3.21c0-.41-.26-.62-.7-.62h-1.44v1.25h1.44C651.59,142.09,651.85,141.88,651.85,141.46Z"/><path class="cls-5" d="M656.62,140.17h3v1.48h-3Z"/><path class="cls-5" d="M668.08,141.29a2.84,2.84,0,0,1-5.58.29h1.79a1,1,0,1,0,1-1.3,1,1,0,0,0-.93.52h-1.78l.72-4.06h4.5v1.57h-3l-.23,1.09a2.11,2.11,0,0,1,1.18-.35A2.18,2.18,0,0,1,668.08,141.29Z"/><path class="cls-5" d="M674.07,142v1.57h-5.58l0-.69a2.89,2.89,0,0,1,2.22-2.95l.41-.14c.71-.25,1-.5,1-.95s-.3-.71-.82-.71-.87.31-.87,1H668.6c0-1.45.78-2.53,2.75-2.53,1.73,0,2.68.91,2.68,2.08,0,1.36-.8,1.93-2.13,2.47l-.51.22c-.46.19-.68.32-.73.67Z"/><rect class="cls-5" x="557.19" y="138.3" width="48.89" height="3.83"/><rect class="cls-5" x="557.19" y="144.55" width="48.89" height="3.83"/><rect class="cls-6" x="613.36" y="132.62" width="11.06" height="15.19"/><path class="cls-5" d="M674.55,148.88H615.6a3.13,3.13,0,0,1-3.13-3.13V134.68a3.14,3.14,0,0,1,3.13-3.14h58.95a3.15,3.15,0,0,1,3.14,3.14v11.07A3.14,3.14,0,0,1,674.55,148.88ZM615.6,132.54a2.13,2.13,0,0,0-2.13,2.14v11.07a2.13,2.13,0,0,0,2.13,2.13h58.95a2.13,2.13,0,0,0,2.14-2.13V134.68a2.14,2.14,0,0,0-2.14-2.14Z"/><path class="cls-5" d="M622.3,140.17c0,2-1.09,3.43-3.55,3.43h-3v-6.86h3C621.21,136.74,622.3,138.15,622.3,140.17Zm-2,0c0-1.34-.67-1.81-1.59-1.81h-1V142h1C619.63,142,620.3,141.51,620.3,140.17Z"/><path class="cls-5" d="M529.31,244.55H478.68V209.44h50.63Zm-49.13-1.5h47.63V210.94H480.18Z"/><path class="cls-5" d="M378.42,199.87H327.78V164.75h50.64Zm-49.14-1.5h47.64V166.25H329.28Z"/></g></svg>