<svg xmlns="http://www.w3.org/2000/svg" xmlns:xlink="http://www.w3.org/1999/xlink" viewBox="0 0 770 420"><defs><style>.cls-1,.cls-2{fill:none;}.cls-1{clip-rule:evenodd;}.cls-3{fill:gray;}.cls-4{fill:#fff;}.cls-5{fill:#faa41a;}.cls-6{clip-path:url(#clip-path);}.cls-7{clip-path:url(#clip-path-2);}.cls-8{clip-path:url(#clip-path-3);}.cls-9{clip-path:url(#clip-path-4);}</style><clipPath id="clip-path"><polygon class="cls-1" points="211.49 299.65 251.59 299.65 251.59 278.12 211.49 278.12 211.49 299.65 211.49 299.65"/></clipPath><clipPath id="clip-path-2"><polygon class="cls-2" points="211.49 299.65 251.59 299.65 251.59 278.12 211.49 278.12 211.49 299.65 211.49 299.65"/></clipPath><clipPath id="clip-path-3"><polygon class="cls-1" points="519.75 333.34 559.49 333.34 559.49 312 519.75 312 519.75 333.34 519.75 333.34"/></clipPath><clipPath id="clip-path-4"><polygon class="cls-2" points="519.75 333.34 559.49 333.34 559.49 312 519.75 312 519.75 333.34 519.75 333.34"/></clipPath></defs><g id="Gebäude"><rect class="cls-3" x="575.15" y="305.85" width="2" height="46.08"/><rect class="cls-3" x="529.12" y="339.9" width="2" height="12.03"/><polygon class="cls-3" points="531.12 306.29 529.12 306.29 529.12 253.61 572.79 253.61 572.79 255.61 531.12 255.61 531.12 306.29"/><rect class="cls-3" x="517.13" y="339.9" width="2" height="12.03"/><polygon class="cls-3" points="473.1 351.93 471.1 351.93 471.1 253.61 519.13 253.61 519.13 306.29 517.13 306.29 517.13 255.61 473.1 255.61 473.1 351.93"/><polygon class="cls-3" points="416.48 352.17 414.48 352.17 414.48 253.6 462.5 253.6 462.5 351.93 460.5 351.93 460.5 255.6 416.48 255.6 416.48 352.17"/><polygon class="cls-3" points="405.37 352.57 403.37 352.57 403.37 255.6 359.34 255.6 359.34 277.91 357.34 277.91 357.34 253.6 405.37 253.6 405.37 352.57"/><polygon class="cls-3" points="348.17 277.91 346.17 277.91 346.17 255.6 302.15 255.6 302.15 277.9 300.15 277.9 300.15 253.6 348.17 253.6 348.17 277.91"/><polygon class="cls-3" points="291.17 277.86 289.17 277.86 289.17 255.61 245.15 255.61 245.15 272.35 243.15 272.35 243.15 253.61 291.17 253.61 291.17 277.86"/><rect class="cls-3" x="212.67" y="39.58" width="22" height="2"/><polygon class="cls-3" points="605.46 353.16 366.08 353.16 366.08 351.16 603.46 351.16 603.46 306.8 605.46 306.8 605.46 353.16"/><rect class="cls-3" x="198.06" y="216.45" width="202.76" height="2"/><polygon class="cls-3" points="211.41 353.16 194.99 353.16 194.99 272.52 196.99 272.52 196.99 351.16 211.41 351.16 211.41 353.16"/><polygon class="cls-3" points="245.09 217.45 243.09 217.45 243.09 31.54 213.67 31.54 213.67 217.45 211.67 217.45 211.67 29.54 245.09 29.54 245.09 217.45"/><polygon class="cls-3" points="274.96 217.45 272.96 217.45 272.96 100.67 258.51 100.67 258.51 217.45 256.51 217.45 256.51 98.67 274.96 98.67 274.96 217.45"/><polygon class="cls-3" points="468.97 218.32 468.01 216.57 537.48 178.25 537.48 217.91 535.48 217.91 535.48 181.63 468.97 218.32"/><polygon class="cls-3" points="400.9 218.32 399.94 216.57 469.41 178.25 469.41 217.91 467.41 217.91 467.41 181.63 400.9 218.32"/><polygon class="cls-3" points="536.95 218.32 535.99 216.57 605.45 178.24 605.45 209.33 603.45 209.33 603.45 181.63 536.95 218.32"/><polygon class="cls-3" points="367.08 388.78 210.41 388.78 210.41 306.28 212.41 306.28 212.41 386.78 365.08 386.78 365.08 278.91 256.31 278.91 256.31 276.91 367.08 276.91 367.08 388.78"/><path class="cls-3" d="M254.36,329.91v36.2H229.12v-36.2h25.24m2-2H227.12v40.2h29.24v-40.2Z"/><path class="cls-3" d="M295.21,329.91v36.2H270v-36.2h25.25m2-2H268v40.2h29.25v-40.2Z"/><path class="cls-3" d="M334.92,329.91v36.2H309.68v-36.2h25.24m2-2H307.68v40.2h29.24v-40.2Z"/></g><g id="Dashboards"><path class="cls-4" d="M156,273.52H40.29a3.07,3.07,0,0,1-3.07-3.07V177.18a3.08,3.08,0,0,1,3.07-3.07H52v2H40.29a1.07,1.07,0,0,0-1.07,1.07v93.27a1.07,1.07,0,0,0,1.07,1.07H156Z"/><path class="cls-4" d="M196,273.52H182.61v-2H196a1.07,1.07,0,0,0,1.07-1.07V177.18a1.07,1.07,0,0,0-1.07-1.07H108.48v-2H196a3.07,3.07,0,0,1,3.07,3.07v93.27A3.06,3.06,0,0,1,196,273.52Z"/><path class="cls-4" d="M190.64,262h-145a2,2,0,0,1-2-2V181.79a2,2,0,0,1,2-2h145a2,2,0,0,1,2,2v78.15A2,2,0,0,1,190.64,262Zm-145-80.91a.73.73,0,0,0-.73.73v78.15a.73.73,0,0,0,.73.73h145a.73.73,0,0,0,.73-.73V181.79a.73.73,0,0,0-.73-.73Z"/><circle class="cls-5" cx="188.57" cy="266.96" r="1.36"/><circle class="cls-4" cx="184.24" cy="266.96" r="0.96"/><path class="cls-4" d="M207.15,292.35H192.08a3.75,3.75,0,0,1-3.74-3.75V272.86h1.5V288.6a2.25,2.25,0,0,0,2.24,2.25h15.07Z"/><polygon class="cls-5" points="261.8 266.5 261.8 300.42 256.31 300.42 256.31 272.35 212.22 272.35 212.22 266.5 261.8 266.5"/><g class="cls-6"><g class="cls-7"><path class="cls-4" d="M238.8,289.38V278.11h2.47V284l2.33-3.06h2.94l-3.12,3.71,3,4.74h-2.8l-2.35-4.07,0,4.07Zm-24.91,5.73a2,2,0,0,0,2,2.18A2.16,2.16,0,0,0,216,293a2.06,2.06,0,0,0-2.07,2.13Zm8.76,0a2,2,0,1,0,2-2.13,2,2,0,0,0-2,2.13Zm8.66,0a2.09,2.09,0,0,0,2.06,2.13,2.16,2.16,0,1,0-2.06-2.13ZM216,287.31a2.16,2.16,0,1,0-2.08-2.15,2.09,2.09,0,0,0,2.08,2.15Zm6.69-3.09h3.77a2,2,0,0,0-3.77,0Zm15.27-3.29v8.45h-2.48v-.92a2.74,2.74,0,0,1-2.45,1.21,4.09,4.09,0,0,1-4.11-3.75h-6.25a1.86,1.86,0,0,0,1.94,1.6,1.74,1.74,0,0,0,1.5-.79h2.54a4.9,4.9,0,0,1-1.69,2.16,4,4,0,0,1-2.35.76,4.42,4.42,0,0,1-4.21-3.19,4,4,0,0,1-3.88,3.21,3.17,3.17,0,0,1-2.5-1.05v3a3.2,3.2,0,0,1,2.41-1,4,4,0,0,1,4,3.27A4.47,4.47,0,0,1,229,294a4.12,4.12,0,0,1,4-3.34,2.68,2.68,0,0,1,2.41,1.19l0-.9h2.48v8.45h-2.48v-.91a2.72,2.72,0,0,1-2.44,1.2,4,4,0,0,1-4-3.35,4.46,4.46,0,0,1-8.62,0,4.08,4.08,0,0,1-4.06,3.32,2.66,2.66,0,0,1-2.37-1.19l0,.9h-2.37V280.93h2.33v.93a3.26,3.26,0,0,1,2.62-1.22,3.91,3.91,0,0,1,3.89,3.28,4.33,4.33,0,0,1,8.51.69,4.16,4.16,0,0,1,4.13-4,2.68,2.68,0,0,1,2.42,1.19l0-.9Zm-6.61,4.25a2.09,2.09,0,0,0,2.06,2.13,2.16,2.16,0,1,0-2.06-2.13Zm20.26,2.92v11.26h-2.36v-.91a2.71,2.71,0,0,1-2.51,1.18c-2.51,0-4.15-2-4.15-4.52a5.07,5.07,0,0,1,.36-1.93c-1,.07-1.64.38-1.64,1.54v4.64h-2.48v-8.45h2.33v.9a2.14,2.14,0,0,1,2.11-1.19v1.92a4,4,0,0,1,3.43-1.92,3.16,3.16,0,0,1,2.43,1V288.1Zm-6.54,7a2,2,0,0,0,2.08,2.17,2.09,2.09,0,0,0,2.12-2.17,2.1,2.1,0,1,0-4.2,0Z"/></g></g><circle class="cls-5" cx="721.87" cy="300.04" r="1.34"/><path class="cls-4" d="M729.13,306.85H614.48v-2H729.13a1,1,0,0,0,1-1.05V211.37a1,1,0,0,0-1-1.05H717.56v-2h11.57a3.06,3.06,0,0,1,3,3.05V303.8A3.06,3.06,0,0,1,729.13,306.85Z"/><path class="cls-4" d="M588.1,306.85H574.84a3.06,3.06,0,0,1-3.05-3.05V211.37a3.06,3.06,0,0,1,3.05-3.05h86.72v2H574.84a1,1,0,0,0-1.05,1.05V303.8a1,1,0,0,0,1.05,1.05H588.1Z"/><path class="cls-4" d="M723.82,295.85H580.14a1.87,1.87,0,0,1-1.86-1.87V216.55a1.87,1.87,0,0,1,1.86-1.87H723.82a1.87,1.87,0,0,1,1.87,1.87V294A1.87,1.87,0,0,1,723.82,295.85ZM580.14,215.68a.87.87,0,0,0-.86.87V294a.87.87,0,0,0,.86.87H723.82a.87.87,0,0,0,.87-.87V216.55a.87.87,0,0,0-.87-.87Z"/><circle class="cls-4" cx="717.53" cy="300.23" r="0.95"/><path class="cls-4" d="M578.71,326.11H564v-1.5h14.73a2.23,2.23,0,0,0,2.22-2.22v-15.6h1.5v15.6A3.73,3.73,0,0,1,578.71,326.11Z"/><polygon class="cls-5" points="558.78 300.98 558.78 306.29 515.07 306.29 515.07 334.6 509.65 334.6 509.65 300.98 558.78 300.98"/><g class="cls-8"><g class="cls-9"><path class="cls-4" d="M546.81,323.15V312h2.45v5.82l2.31-3h2.92l-3.1,3.68,3,4.69h-2.78l-2.33-4,0,4h-2.45Zm-24.68,5.69a2,2,0,0,0,2,2.16,2.14,2.14,0,0,0,0-4.27,2,2,0,0,0-2,2.11Zm8.68,0a2,2,0,1,0,2-2.12,2,2,0,0,0-2,2.12Zm8.58,0a2.05,2.05,0,1,0,4.1,0,2.05,2.05,0,1,0-4.1,0Zm-15.21-7.79a2.13,2.13,0,1,0-2.06-2.12,2.06,2.06,0,0,0,2.06,2.12Zm6.63-3.06h3.73a1.82,1.82,0,0,0-1.86-1.43,1.84,1.84,0,0,0-1.87,1.43Zm15.13-3.25v8.37h-2.45v-.91a2.74,2.74,0,0,1-2.43,1.19,4,4,0,0,1-4.07-3.71h-6.2a1.84,1.84,0,0,0,1.92,1.59,1.73,1.73,0,0,0,1.49-.79h2.52a4.83,4.83,0,0,1-1.68,2.14,3.91,3.91,0,0,1-2.33.76,4.38,4.38,0,0,1-4.17-3.16,4,4,0,0,1-3.85,3.17,3.11,3.11,0,0,1-2.47-1v2.94a3.15,3.15,0,0,1,2.38-.95,4,4,0,0,1,3.92,3.25,4.43,4.43,0,0,1,8.54.06,4.09,4.09,0,0,1,4-3.31,2.67,2.67,0,0,1,2.4,1.18l0-.89h2.45v8.37h-2.45v-.91a2.72,2.72,0,0,1-2.43,1.19,4,4,0,0,1-4-3.32,4.42,4.42,0,0,1-8.54,0,4,4,0,0,1-4,3.29,2.65,2.65,0,0,1-2.35-1.17l0,.89h-2.35V314.79h2.3v.92a3.26,3.26,0,0,1,2.61-1.21,3.87,3.87,0,0,1,3.85,3.25,4.29,4.29,0,0,1,8.43.68,4.13,4.13,0,0,1,4.1-3.93,2.65,2.65,0,0,1,2.4,1.18l0-.89Zm-6.55,4.2a2.05,2.05,0,1,0,4.1,0,2.05,2.05,0,1,0-4.1,0Zm20.08,2.9v11.16h-2.34v-.91a2.68,2.68,0,0,1-2.49,1.18c-2.48,0-4.11-2-4.11-4.48a5.12,5.12,0,0,1,.35-1.91c-1,.07-1.62.37-1.62,1.52v4.6h-2.45v-8.37h2.31v.89a2.08,2.08,0,0,1,2.08-1.18v1.9a4,4,0,0,1,3.4-1.9,3.13,3.13,0,0,1,2.41,1v-3.5ZM553,328.82a2,2,0,0,0,2,2.16,2.07,2.07,0,0,0,2.1-2.16,2.08,2.08,0,1,0-4.15,0Z"/></g></g><rect class="cls-4" x="587.51" y="239.53" width="54.12" height="29.85"/><rect class="cls-4" x="587.51" y="281.4" width="54.21" height="2.95"/><rect class="cls-4" x="587.51" y="275.36" width="36.99" height="2.97"/><rect class="cls-4" x="587.51" y="226.33" width="35.46" height="4.88"/><rect class="cls-4" x="655" y="264.8" width="24.54" height="14.6"/><rect class="cls-4" x="684.11" y="271.02" width="32.24" height="2.95"/><rect class="cls-4" x="684.11" y="264.77" width="22" height="2.95"/><rect class="cls-4" x="684.11" y="276.46" width="32.24" height="2.95"/><rect class="cls-4" x="684.11" y="281.82" width="32.24" height="2.95"/><rect class="cls-5" x="655.1" y="239.43" width="24.54" height="14.6"/><rect class="cls-5" x="684.21" y="245.64" width="32.24" height="2.95"/><rect class="cls-5" x="684.21" y="239.39" width="22" height="2.95"/><rect class="cls-5" x="684.21" y="251.09" width="32.24" height="2.95"/><rect class="cls-4" x="647.61" y="239.25" width="1.3" height="45.35"/><path class="cls-4" d="M70.08,222a13.3,13.3,0,1,0,13.3,13.3A13.29,13.29,0,0,0,70.08,222Zm0,23.22A9.91,9.91,0,1,1,80,235.31,9.91,9.91,0,0,1,70.06,245.22Z"/><path class="cls-5" d="M64.8,243.59l-1.75,3a13.31,13.31,0,0,1,.34-22.8l1.91,2.92a9.82,9.82,0,0,0-.5,16.87Z"/><path class="cls-4" d="M102.53,222a13.3,13.3,0,1,0,13.3,13.3A13.3,13.3,0,0,0,102.53,222Zm0,23.22a9.91,9.91,0,1,1,9.91-9.91A9.91,9.91,0,0,1,102.52,245.22Z"/><path class="cls-5" d="M115.88,235.29a13.23,13.23,0,0,1-3.14,8.59h0l-2.59-2.33h0a9.68,9.68,0,0,0,2.26-6.26,9.83,9.83,0,1,0-15.11,8.29l-1.74,3a13.3,13.3,0,1,1,20.32-11.3Z"/><path class="cls-4" d="M135,222a13.3,13.3,0,1,0,13.3,13.3A13.3,13.3,0,0,0,135,222Zm0,23.22a9.91,9.91,0,1,1,9.9-9.91A9.91,9.91,0,0,1,135,245.22Z"/><path class="cls-5" d="M148.34,235.29c0,.23,0,.46,0,.68h-3.47c0-.23,0-.45,0-.68a9.83,9.83,0,1,0-15.11,8.29l-1.75,3a13.3,13.3,0,1,1,20.33-11.3Z"/><path class="cls-4" d="M166.89,222.59a13.3,13.3,0,1,0,13.3,13.3A13.29,13.29,0,0,0,166.89,222.59Zm0,23.22a9.91,9.91,0,1,1,9.91-9.91A9.91,9.91,0,0,1,166.87,245.81Z"/><path class="cls-5" d="M157.05,235.88a9.83,9.83,0,0,0,4.56,8.29l-1.74,3a13.29,13.29,0,0,1,7-24.59v3.47A9.83,9.83,0,0,0,157.05,235.88Z"/><path class="cls-4" d="M72,215.05H69.68l-.24.76H67.77L69.84,210h2l2.14,5.81H72.2Zm-.44-1.35-.44-1.34c-.09-.3-.19-.61-.27-.92-.09.31-.18.62-.28.92l-.42,1.34Z"/><path class="cls-4" d="M105.39,214.09c0,1-.66,1.72-2.18,1.72h-2.95V210h2.89c1.51,0,2,.73,2,1.47a1.29,1.29,0,0,1-.76,1.22A1.51,1.51,0,0,1,105.39,214.09Zm-3.5-2.82v1H103a.5.5,0,0,0,0-1ZM103.7,214c0-.35-.22-.53-.58-.53h-1.23v1.06h1.23C103.48,214.52,103.7,214.35,103.7,214Z"/><path class="cls-4" d="M132.61,212.9a2.78,2.78,0,0,1,3-3,2.67,2.67,0,0,1,2.85,2.29h-1.65a1.16,1.16,0,0,0-1.2-.9c-.85,0-1.28.62-1.28,1.64s.43,1.64,1.28,1.64a1.18,1.18,0,0,0,1.23-1h1.63a2.67,2.67,0,0,1-2.86,2.41A2.82,2.82,0,0,1,132.61,212.9Z"/><path class="cls-4" d="M170.67,213.49a2.67,2.67,0,0,1-3,2.9h-2.54v-5.81h2.54A2.68,2.68,0,0,1,170.67,213.49Zm-1.7,0c0-1.13-.57-1.53-1.34-1.53h-.88V215h.88C168.4,215,169,214.62,169,213.49Z"/><path class="cls-4" d="M62.21,198.83v1.87H56.78v-7.5h2.11v5.63Z"/><path class="cls-4" d="M62.84,193.2H65v7.5H62.84Z"/><path class="cls-4" d="M72.8,193.2v7.5H70.58L69,198c-.39-.67-.72-1.22-1-1.86,0,1.12.06,2.12.06,3.3v1.22H66v-7.5h2.23l1.59,2.66c.31.52.71,1.22,1,1.87,0-1.12,0-2.13,0-3.31V193.2Z"/><path class="cls-4" d="M76,195.07v1h3.48v1.76H76v1h3.82v1.87H73.86v-7.5h5.92v1.87Z"/><path class="cls-4" d="M86.76,200.7H84.65v-4.36H82.88v-1.4h.17a2,2,0,0,0,2.06-1.73h1.65Z"/><path class="cls-4" d="M93.69,199v1.71H87.58l0-.75a3.18,3.18,0,0,1,2.43-3.23l.45-.16c.78-.27,1.06-.55,1.06-1s-.33-.78-.9-.78-1,.33-1,1.05h-2c0-1.59.85-2.77,3-2.77,1.9,0,2.93,1,2.93,2.28,0,1.48-.87,2.1-2.33,2.71l-.55.23c-.51.21-.75.36-.81.74Z"/><path class="cls-4" d="M257.06,307H206V271.6h51.09Zm-49.59-1.5h48.09V273.1H207.47Z"/><path class="cls-4" d="M565,340.65H514.32V305.53H565Zm-49.14-1.5h47.64V307H515.82Z"/></g></svg>